<svg aria-hidden="true" xmlns="http://www.w3.org/2000/svg" xmlns:xlink="http://www.w3.org/1999/xlink">
    <defs>
        <!-- icon header film -->
        <symbol id="icon-film" viewBox="0 0 32 32">
            <path fill="none" stroke="#fff" style="stroke: var(--color1, #fff)" stroke-linejoin="round"
                stroke-linecap="round" stroke-miterlimit="4" stroke-width="2.6667"
                d="M26.427 2.667h-20.853c-1.605 0-2.907 1.301-2.907 2.907v20.853c0 1.605 1.301 2.907 2.907 2.907h20.853c1.605 0 2.907-1.301 2.907-2.907v-20.853c0-1.605-1.301-2.907-2.907-2.907z">
            </path>
            <path fill="none" stroke="#fff" style="stroke: var(--color1, #fff)" stroke-linejoin="round"
                stroke-linecap="round" stroke-miterlimit="4" stroke-width="2.6667" d="M9.333 2.667v26.667"></path>
            <path fill="none" stroke="#fff" style="stroke: var(--color1, #fff)" stroke-linejoin="round"
                stroke-linecap="round" stroke-miterlimit="4" stroke-width="2.6667" d="M22.667 2.667v26.667"></path>
            <path fill="none" stroke="#fff" style="stroke: var(--color1, #fff)" stroke-linejoin="round"
                stroke-linecap="round" stroke-miterlimit="4" stroke-width="2.6667" d="M2.667 16h26.667"></path>
            <path fill="none" stroke="#fff" style="stroke: var(--color1, #fff)" stroke-linejoin="round"
                stroke-linecap="round" stroke-miterlimit="4" stroke-width="2.6667" d="M2.667 9.333h6.667"></path>
            <path fill="none" stroke="#fff" style="stroke: var(--color1, #fff)" stroke-linejoin="round"
                stroke-linecap="round" stroke-miterlimit="4" stroke-width="2.6667" d="M2.667 22.667h6.667"></path>
            <path fill="none" stroke="#fff" style="stroke: var(--color1, #fff)" stroke-linejoin="round"
                stroke-linecap="round" stroke-miterlimit="4" stroke-width="2.6667" d="M22.667 22.667h6.667"></path>
            <path fill="none" stroke="#fff" style="stroke: var(--color1, #fff)" stroke-linejoin="round"
                stroke-linecap="round" stroke-miterlimit="4" stroke-width="2.6667" d="M22.667 9.333h6.667"></path>
        </symbol>
        <!-- icon input search -->
        <symbol id="icon-search" viewBox="0 0 32 32">
            <path fill="none" stroke="#fff" style="stroke: var(--color1, #fff)" stroke-linejoin="round"
                stroke-linecap="round" stroke-miterlimit="4" stroke-width="2.6667"
                d="M14.667 25.333c5.891 0 10.667-4.776 10.667-10.667s-4.776-10.667-10.667-10.667c-5.891 0-10.667 4.776-10.667 10.667s4.776 10.667 10.667 10.667z">
            </path>
            <path fill="none" stroke="#fff" style="stroke: var(--color1, #fff)" stroke-linejoin="round"
                stroke-linecap="round" stroke-miterlimit="4" stroke-width="2.6667" d="M28 28.001l-5.8-5.8"></path>
        </symbol>
        <!-- icon modal window close -->
        <symbol id="icon-close" viewBox="0 0 32 32">
            <path stroke-linejoin="miter" stroke-linecap="butt" stroke-miterlimit="4" stroke-width="2.1333"
                d="M8.533 8.533l14.933 14.933"></path>
            <path stroke-linejoin="miter" stroke-linecap="butt" stroke-miterlimit="4" stroke-width="2.1333"
                d="M8.533 23.467l14.933-14.933"></path>
        </symbol>
        <!-- pagination icon arrow left -->
        <symbol id="icon-arrow-left" viewBox="0 0 32 32">
            <path stroke-linejoin="round" stroke-linecap="round" stroke-miterlimit="4" stroke-width="2.6667"
                d="M25.333 16h-18.667"></path>
            <path stroke-linejoin="round" stroke-linecap="round" stroke-miterlimit="4" stroke-width="2.6667"
                d="M16 25.333l-9.333-9.333 9.333-9.333"></path>
        </symbol>
        <!-- pagination icon dots -->
        <symbol id="icon-three-dots" viewBox="0 0 107 32">
            <path
                d="M8.375 13.833c0-2.333 0.792-4.292 2.375-5.875 1.583-1.625 3.729-2.438 6.438-2.438 2.75 0 4.896 0.813 6.437 2.438 1.583 1.583 2.375 3.542 2.375 5.875s-0.792 4.292-2.375 5.875c-1.542 1.583-3.687 2.375-6.437 2.375-2.708 0-4.854-0.792-6.438-2.375s-2.375-3.542-2.375-5.875zM44 13.833c0-2.333 0.792-4.292 2.375-5.875 1.583-1.625 3.729-2.438 6.437-2.438 2.75 0 4.896 0.813 6.438 2.438 1.583 1.583 2.375 3.542 2.375 5.875s-0.792 4.292-2.375 5.875c-1.542 1.583-3.688 2.375-6.438 2.375-2.708 0-4.854-0.792-6.437-2.375s-2.375-3.542-2.375-5.875zM79.625 13.833c0-2.333 0.792-4.292 2.375-5.875 1.583-1.625 3.729-2.438 6.438-2.438 2.75 0 4.896 0.813 6.437 2.438 1.583 1.583 2.375 3.542 2.375 5.875s-0.792 4.292-2.375 5.875c-1.542 1.583-3.687 2.375-6.437 2.375-2.708 0-4.854-0.792-6.438-2.375s-2.375-3.542-2.375-5.875z">
            </path>
        </symbol>
        <!-- pagination icon arrow right -->
        <symbol id="icon-arrow-right" viewBox="0 0 32 32">
            <path stroke-linejoin="round" stroke-linecap="round" stroke-miterlimit="4" stroke-width="2.6667"
                d="M6.667 16h18.667"></path>
            <path stroke-linejoin="round" stroke-linecap="round" stroke-miterlimit="4" stroke-width="2.6667"
                d="M16 25.333l9.333-9.333-9.333-9.333"></path>
        </symbol>
        <!-- icon footer heart -->
        <symbol id="icon-heart" viewBox="0 0 34 32">
            <path
                d="M17.231 31.705l-2.412-2.412c-8.96-7.926-14.818-13.268-14.818-19.815 0-5.342 4.135-9.477 9.477-9.477 2.929 0 5.858 1.378 7.754 3.618 1.895-2.24 4.825-3.618 7.754-3.618 5.342 0 9.477 4.135 9.477 9.477 0 6.548-5.858 11.889-14.818 19.815l-2.412 2.412z">
            </path>
        </symbol>
    </defs>
</svg>