<!-- Generated by IcoMoon.io -->
<svg version="1.1" xmlns="http://www.w3.org/2000/svg" width="107" height="32" viewBox="0 0 107 32">
<title>three-dots</title>
<path d="M8.375 13.833c0-2.333 0.792-4.292 2.375-5.875 1.583-1.625 3.729-2.438 6.438-2.438 2.75 0 4.896 0.813 6.437 2.438 1.583 1.583 2.375 3.542 2.375 5.875s-0.792 4.292-2.375 5.875c-1.542 1.583-3.687 2.375-6.437 2.375-2.708 0-4.854-0.792-6.438-2.375s-2.375-3.542-2.375-5.875zM44 13.833c0-2.333 0.792-4.292 2.375-5.875 1.583-1.625 3.729-2.438 6.437-2.438 2.75 0 4.896 0.813 6.438 2.438 1.583 1.583 2.375 3.542 2.375 5.875s-0.792 4.292-2.375 5.875c-1.542 1.583-3.688 2.375-6.438 2.375-2.708 0-4.854-0.792-6.437-2.375s-2.375-3.542-2.375-5.875zM79.625 13.833c0-2.333 0.792-4.292 2.375-5.875 1.583-1.625 3.729-2.438 6.438-2.438 2.75 0 4.896 0.813 6.437 2.438 1.583 1.583 2.375 3.542 2.375 5.875s-0.792 4.292-2.375 5.875c-1.542 1.583-3.687 2.375-6.437 2.375-2.708 0-4.854-0.792-6.438-2.375s-2.375-3.542-2.375-5.875z"></path>
</svg>
